<svg width="12" height="16" viewBox="0 0 12 16" fill="none" xmlns="http://www.w3.org/2000/svg">
<path fill-rule="evenodd" clip-rule="evenodd" d="M8.91218 13.8386C8.185 14.6368 7.33813 15.3516 6.3872 15.9297C6.27012 16.0156 6.11141 16.0261 5.98133 15.9427C4.57639 15.0482 3.3965 13.974 2.46899 12.806C1.18893 11.1993 0.383694 9.41805 0.10791 7.70191C-0.173077 5.96235 0.0896981 4.28788 0.954775 2.92721C1.2956 2.38946 1.73139 1.89988 2.26215 1.47671C3.48236 0.504057 4.87559 -0.0102614 6.26492 0.000155151C7.60221 0.0105717 8.92259 0.509265 10.0635 1.55223C10.4641 1.91681 10.801 2.33477 11.0768 2.78789C12.0069 4.32173 12.2073 6.27745 11.7988 8.2592C11.3955 10.2175 10.3939 12.2071 8.91218 13.8347V13.8386ZM5.99954 3.09388C7.64904 3.09388 8.98503 4.43241 8.98503 6.08214C8.98503 7.73316 7.64774 9.07039 5.99954 9.07039C4.35004 9.07039 3.01405 7.73316 3.01405 6.08214C3.01275 4.43111 4.35004 3.09388 5.99954 3.09388Z" fill="#283543" fill-opacity="0.5"/>
</svg>
