<svg width="24" height="24" viewBox="0 0 24 24" fill="none" xmlns="http://www.w3.org/2000/svg">
<path d="M10.159 21.5273C8.21356 21.1543 6.47514 20.2012 5.12737 18.8555C3.7796 17.5078 2.82835 15.7695 2.45528 13.8223H3.66827C4.02377 15.4395 4.83828 16.8848 5.96924 18.0156C7.09823 19.1445 8.54366 19.959 10.161 20.3164V21.5273H10.159ZM18.8121 12.5938C18.4839 12.5938 18.2183 12.3281 18.2183 12C18.2183 11.6719 18.4839 11.4062 18.8121 11.4062H23.4062C23.7344 11.4062 24 11.6719 24 12C24 12.3281 23.7344 12.5938 23.4062 12.5938H18.8121ZM12.5948 5.18945C12.5948 5.51758 12.3291 5.7832 12.001 5.7832C11.6728 5.7832 11.4072 5.51758 11.4072 5.18945V0.59375C11.4072 0.265625 11.6728 0 12.001 0C12.3291 0 12.5948 0.265625 12.5948 0.59375V5.18945ZM12.5948 23.4062C12.5948 23.7344 12.3291 24 12.001 24C11.6728 24 11.4072 23.7344 11.4072 23.4062V18.8105C11.4072 18.0293 12.5948 18.0293 12.5948 18.8105V23.4062ZM0.593798 12.5938C0.265647 12.5938 0 12.3281 0 12C0 11.6719 0.265647 11.4062 0.593798 11.4062H5.18792C5.51607 11.4062 5.78172 11.6719 5.78172 12C5.78172 12.3281 5.51607 12.5938 5.18792 12.5938H0.593798ZM11.999 9.16797C13.5636 9.16797 14.8313 10.4355 14.8313 12C14.8313 13.5645 13.5636 14.832 11.999 14.832C10.4344 14.832 9.16676 13.5645 9.16676 12C9.16871 10.4355 10.4364 9.16797 11.999 9.16797ZM2.45332 10.1406C2.8264 8.19531 3.7796 6.45703 5.12542 5.10938C6.47318 3.76172 8.21161 2.80859 10.159 2.43555V3.65039C8.54171 4.00586 7.09628 4.82031 5.96533 5.95117C4.83633 7.08008 4.01986 8.52344 3.66631 10.1406H2.45332ZM13.841 2.43359C15.7884 2.80664 17.5268 3.75977 18.8746 5.10742C20.2223 6.45312 21.1756 8.19531 21.5467 10.1406H20.3337C19.9782 8.52344 19.1637 7.07617 18.0327 5.94727C16.9037 4.81641 15.4583 4.00195 13.841 3.64648V2.43359ZM21.5486 13.8223C21.1756 15.7676 20.2223 17.5078 18.8746 18.8555C17.5268 20.2031 15.7884 21.1562 13.841 21.5293V20.3164C17.0737 19.6055 19.6266 17.0566 20.3356 13.8223H21.5486Z" fill="#283543" fill-opacity="0.5"/>
</svg>
