<svg width="24" height="24" viewBox="0 0 24 24" fill="none" xmlns="http://www.w3.org/2000/svg">
<path d="M17.9976 7.16C17.9376 7.15 17.8676 7.15 17.8076 7.16C16.4276 7.11 15.3276 5.98 15.3276 4.58C15.3276 3.15 16.4776 2 17.9076 2C19.3376 2 20.4876 3.16 20.4876 4.58C20.4776 5.98 19.3776 7.11 17.9976 7.16Z" stroke="#263649" stroke-width="1.5" stroke-linecap="round" stroke-linejoin="round"/>
<path d="M16.9675 14.44C18.3375 14.67 19.8475 14.43 20.9075 13.72C22.3175 12.78 22.3175 11.24 20.9075 10.3C19.8375 9.59004 18.3075 9.35003 16.9375 9.59003" stroke="#263649" stroke-width="1.5" stroke-linecap="round" stroke-linejoin="round"/>
<path d="M5.96754 7.16C6.02754 7.15 6.09754 7.15 6.15754 7.16C7.53754 7.11 8.63754 5.98 8.63754 4.58C8.63754 3.15 7.48754 2 6.05754 2C4.62754 2 3.47754 3.16 3.47754 4.58C3.48754 5.98 4.58754 7.11 5.96754 7.16Z" stroke="#263649" stroke-width="1.5" stroke-linecap="round" stroke-linejoin="round"/>
<path d="M6.9975 14.44C5.6275 14.67 4.1175 14.43 3.0575 13.72C1.6475 12.78 1.6475 11.24 3.0575 10.3C4.1275 9.59004 5.6575 9.35003 7.0275 9.59003" stroke="#263649" stroke-width="1.5" stroke-linecap="round" stroke-linejoin="round"/>
<path d="M12.0001 14.63C11.9401 14.62 11.8701 14.62 11.8101 14.63C10.4301 14.58 9.33008 13.45 9.33008 12.05C9.33008 10.62 10.4801 9.46997 11.9101 9.46997C13.3401 9.46997 14.4901 10.63 14.4901 12.05C14.4801 13.45 13.3801 14.59 12.0001 14.63Z" stroke="#263649" stroke-width="1.5" stroke-linecap="round" stroke-linejoin="round"/>
<path d="M9.08997 17.78C7.67997 18.72 7.67997 20.26 9.08997 21.2C10.69 22.27 13.31 22.27 14.91 21.2C16.32 20.26 16.32 18.72 14.91 17.78C13.32 16.72 10.69 16.72 9.08997 17.78Z" stroke="#263649" stroke-width="1.5" stroke-linecap="round" stroke-linejoin="round"/>
</svg>
