<svg width="24" height="24" viewBox="0 0 24 24" fill="none" xmlns="http://www.w3.org/2000/svg">
<path d="M16.4944 14.1947C17.7295 14.4017 19.0909 14.1857 20.0466 13.5468C21.3178 12.7009 21.3178 11.315 20.0466 10.4691C19.0819 9.83023 17.7025 9.61425 16.4673 9.83022M7.5056 14.1947C6.27045 14.4017 4.90908 14.1857 3.95341 13.5468C2.6822 12.7009 2.6822 11.315 3.95341 10.4691C4.91809 9.83023 6.2975 9.61425 7.53265 9.83022M17.4231 7.64343C17.369 7.63443 17.3059 7.63443 17.2518 7.64343C16.0077 7.59844 15.0159 6.58156 15.0159 5.32172C15.0159 4.03487 16.0527 3 17.342 3C18.6312 3 19.668 4.04387 19.668 5.32172C19.659 6.58156 18.6673 7.59844 17.4231 7.64343ZM6.57708 7.64343C6.63117 7.63443 6.69428 7.63443 6.74838 7.64343C7.99255 7.59844 8.98427 6.58156 8.98427 5.32172C8.98427 4.03487 7.94747 3 6.65822 3C5.36897 3 4.33216 4.04387 4.33216 5.32172C4.34118 6.58156 5.33291 7.59844 6.57708 7.64343ZM12.0157 14.3656C11.9616 14.3566 11.8985 14.3566 11.8444 14.3656C10.6002 14.3206 9.60848 13.3037 9.60848 12.0439C9.60848 10.7571 10.6453 9.72218 11.9345 9.72218C13.2238 9.72218 14.2606 10.7661 14.2606 12.0439C14.2516 13.3037 13.2598 14.3296 12.0157 14.3656ZM9.39195 17.2002C8.12074 18.0461 8.12074 19.4319 9.39195 20.2778C10.8345 21.2407 13.1966 21.2407 14.6391 20.2778C15.9103 19.4319 15.9103 18.0461 14.6391 17.2002C13.2056 16.2463 10.8345 16.2463 9.39195 17.2002Z" stroke="#9399A0" stroke-width="1.5" stroke-linecap="round" stroke-linejoin="round"/>
</svg>
