<svg width="22" height="22" viewBox="0 0 22 22" fill="none" xmlns="http://www.w3.org/2000/svg">
<path d="M20.04 19.44L20.5954 19.944L20.5957 19.9436L20.04 19.44ZM18.4 20.62L18.1156 19.926L18.1115 19.9277L18.4 20.62ZM9.75 18.29L9.30762 18.8956L9.30855 18.8963L9.75 18.29ZM6.47 15.49L5.93709 16.0178L5.94224 16.0229L6.47 15.49ZM3.68 12.22L3.07114 12.658L3.07368 12.6614L3.68 12.22ZM1.72 8.81L1.02877 9.10104L1.0297 9.10323L1.72 8.81ZM1.36 3.61L2.05637 3.88855L2.05792 3.88459L1.36 3.61ZM2.51 1.94L3.02467 2.48555L3.03046 2.48008L3.03614 2.47449L2.51 1.94ZM5.4 1.18L5.07541 1.85622L5.08571 1.86097L5.4 1.18ZM6.07 1.74L5.45332 2.16694L5.45831 2.17398L6.07 1.74ZM8.39 5.01L7.7783 5.44399L7.78135 5.44823L8.39 5.01ZM8.79 5.71L8.09574 5.99401L8.10064 6.00544L8.79 5.71ZM8.72 7.03L8.07935 6.64004L8.07305 6.6504L8.06708 6.66096L8.72 7.03ZM8.16 7.74L7.62967 7.20967L7.62454 7.2148L7.61951 7.22003L8.16 7.74ZM7.4 8.53L7.93033 9.06033L7.93546 9.0552L7.94049 9.04997L7.4 8.53ZM7.27 9.16L6.54239 9.3419L6.55275 9.38334L6.56775 9.42334L7.27 9.16ZM7.35 9.36L6.63849 9.59717L6.6596 9.66052L6.69158 9.71914L7.35 9.36ZM8.28 10.64L7.70742 11.1245L7.71287 11.1308L8.28 10.64ZM9.73 12.22L9.19464 12.7453L9.1996 12.7503L9.20465 12.7553L9.73 12.22ZM11.32 13.69L10.8346 14.2617L10.8355 14.2625L11.32 13.69ZM12.61 14.61L12.2591 15.2728L12.2944 15.2915L12.3315 15.3064L12.61 14.61ZM12.79 14.69L12.4946 15.3794L12.5105 15.3862L12.5267 15.3922L12.79 14.69ZM13.45 14.56L12.9232 14.0262L12.9197 14.0297L13.45 14.56ZM14.21 13.81L14.7368 14.3438L14.7403 14.3403L14.21 13.81ZM14.93 13.25L15.2769 13.9149L15.2988 13.9035L15.32 13.8906L14.93 13.25ZM16.95 13.56L17.3842 12.9485L17.378 12.9441L17.3717 12.9398L16.95 13.56ZM20.26 15.91L19.8258 16.5216L19.8331 16.5266L20.26 15.91ZM20.81 16.55L21.5064 16.2715L21.5016 16.2596L21.4965 16.2479L20.81 16.55ZM16.75 8C16.75 8.41421 17.0858 8.75 17.5 8.75C17.9142 8.75 18.25 8.41421 18.25 8H16.75ZM16.33 5.73L15.7801 6.24004L15.7817 6.24174L16.33 5.73ZM14 3.75C13.5858 3.75 13.25 4.08579 13.25 4.5C13.25 4.91421 13.5858 5.25 14 5.25V3.75ZM20.25 8C20.25 8.41421 20.5858 8.75 21 8.75C21.4142 8.75 21.75 8.41421 21.75 8H20.25ZM14 0.25C13.5858 0.25 13.25 0.585786 13.25 1C13.25 1.41421 13.5858 1.75 14 1.75V0.25ZM20.97 17.33H20.22C20.22 17.5775 20.1653 17.8383 20.0418 18.0997L20.72 18.42L21.3982 18.7403C21.6147 18.2817 21.72 17.8025 21.72 17.33H20.97ZM20.72 18.42L20.0418 18.0997C19.9016 18.3967 19.7219 18.6742 19.4843 18.9364L20.04 19.44L20.5957 19.9436C20.9381 19.5658 21.1984 19.1633 21.3982 18.7403L20.72 18.42ZM20.04 19.44L19.4846 18.936C19.0606 19.4032 18.6105 19.7232 18.1156 19.926L18.4 20.62L18.6844 21.314C19.4095 21.0168 20.0394 20.5568 20.5954 19.944L20.04 19.44ZM18.4 20.62L18.1115 19.9277C17.6064 20.1382 17.0548 20.25 16.45 20.25V21V21.75C17.2452 21.75 17.9936 21.6018 18.6885 21.3123L18.4 20.62ZM16.45 21V20.25C15.5486 20.25 14.5587 20.0379 13.484 19.58L13.19 20.27L12.896 20.96C14.1213 21.4821 15.3114 21.75 16.45 21.75V21ZM13.19 20.27L13.484 19.58C12.3915 19.1145 11.2905 18.4839 10.1914 17.6837L9.75 18.29L9.30855 18.8963C10.4895 19.7561 11.6885 20.4455 12.896 20.96L13.19 20.27ZM9.75 18.29L10.1924 17.6844C9.07329 16.8669 8.01176 15.9614 6.99776 14.9571L6.47 15.49L5.94224 16.0229C7.00824 17.0786 8.12671 18.0331 9.30762 18.8956L9.75 18.29ZM6.47 15.49L7.00289 14.9622C5.9985 13.9481 5.09323 12.8868 4.28632 11.7786L3.68 12.22L3.07368 12.6614C3.92677 13.8332 4.8815 14.9519 5.93711 16.0178L6.47 15.49ZM3.68 12.22L4.28885 11.7821C3.49525 10.6787 2.8649 9.58696 2.4103 8.51677L1.72 8.81L1.0297 9.10323C1.5351 10.293 2.22475 11.4813 3.07115 12.6579L3.68 12.22ZM1.72 8.81L2.41123 8.51896C1.9628 7.45396 1.75 6.46299 1.75 5.54H1H0.25C0.25 6.69701 0.517195 7.88604 1.02877 9.10104L1.72 8.81ZM1 5.54H1.75C1.75 4.94888 1.85414 4.39408 2.05636 3.88854L1.36 3.61L0.663642 3.33146C0.385859 4.02592 0.25 4.77112 0.25 5.54H1ZM1.36 3.61L2.05792 3.88459C2.25506 3.38355 2.56991 2.91456 3.02467 2.48555L2.51 1.94L1.99533 1.39445C1.39009 1.96544 0.944942 2.61645 0.662075 3.33541L1.36 3.61ZM2.51 1.94L3.03614 2.47449C3.56293 1.95593 4.08187 1.75 4.59 1.75V1V0.25C3.61813 0.25 2.73707 0.664075 1.98386 1.40551L2.51 1.94ZM4.59 1V1.75C4.76498 1.75 4.93314 1.78783 5.07545 1.85614L5.4 1.18L5.72455 0.503858C5.36686 0.332167 4.97502 0.25 4.59 0.25V1ZM5.4 1.18L5.08571 1.86097C5.23429 1.92955 5.35581 2.02601 5.45336 2.16691L6.07 1.74L6.68664 1.31309C6.42419 0.933987 6.08571 0.670454 5.71429 0.499031L5.4 1.18ZM6.07 1.74L5.45831 2.17398L7.77831 5.44398L8.39 5.01L9.00169 4.57602L6.68169 1.30602L6.07 1.74ZM8.39 5.01L7.78135 5.44823C7.93418 5.66049 8.03246 5.83904 8.09584 5.99397L8.79 5.71L9.48416 5.42603C9.36754 5.14096 9.20582 4.85951 8.99865 4.57177L8.39 5.01ZM8.79 5.71L8.10064 6.00544C8.16141 6.14722 8.18 6.25575 8.18 6.32H8.93H9.68C9.68 6.00425 9.59859 5.69278 9.47936 5.41456L8.79 5.71ZM8.93 6.32H8.18C8.18 6.40903 8.15514 6.51553 8.07935 6.64004L8.72 7.03L9.36065 7.41996C9.56486 7.08447 9.68 6.71097 9.68 6.32H8.93ZM8.72 7.03L8.06708 6.66096C7.97896 6.81685 7.83569 7.00365 7.62967 7.20967L8.16 7.74L8.69033 8.27033C8.96431 7.99635 9.20104 7.70315 9.37292 7.39904L8.72 7.03ZM8.16 7.74L7.61951 7.22003L6.85951 8.01003L7.4 8.53L7.94049 9.04997L8.70049 8.25997L8.16 7.74ZM7.4 8.53L6.86967 7.99967C6.60741 8.26193 6.49 8.58812 6.49 8.93H7.24H7.99C7.99 8.92933 7.98982 8.95268 7.97601 8.98752C7.96164 9.0238 7.94194 9.04872 7.93033 9.06033L7.4 8.53ZM7.24 8.93H6.49C6.49 9.08105 6.51008 9.21265 6.54239 9.3419L7.27 9.16L7.99761 8.9781C7.98992 8.94735 7.99 8.93895 7.99 8.93H7.24ZM7.27 9.16L6.56775 9.42334C6.58932 9.48085 6.61099 9.53127 6.62302 9.55973C6.63761 9.59421 6.63904 9.59883 6.63849 9.59717L7.35 9.36L8.06151 9.12283C8.04096 9.06117 8.01739 9.00579 8.00448 8.97527C7.98902 8.93873 7.98068 8.91915 7.97225 8.89666L7.27 9.16ZM7.35 9.36L6.69158 9.71914C6.90702 10.1141 7.25419 10.5888 7.70746 11.1245L8.28 10.64L8.85254 10.1555C8.42581 9.65123 8.15298 9.26588 8.00842 9.00086L7.35 9.36ZM8.28 10.64L7.71287 11.1308C8.1705 11.6596 8.66123 12.2016 9.19464 12.7453L9.73 12.22L10.2654 11.6947C9.75877 11.1784 9.2895 10.6604 8.84713 10.1492L8.28 10.64ZM9.73 12.22L9.20465 12.7553C9.75068 13.2912 10.2851 13.7952 10.8346 14.2617L11.32 13.69L11.8054 13.1183C11.2949 12.6848 10.7893 12.2088 10.2554 11.6847L9.73 12.22ZM11.32 13.69L10.8355 14.2625C11.3777 14.7213 11.8536 15.0582 12.2591 15.2728L12.61 14.61L12.9609 13.9472C12.6864 13.8018 12.3023 13.5387 11.8045 13.1175L11.32 13.69ZM12.61 14.61L12.3315 15.3064C12.3366 15.3084 12.3476 15.3132 12.38 15.328C12.4073 15.3406 12.4492 15.3599 12.4946 15.3794L12.79 14.69L13.0854 14.0006C13.0608 13.9901 13.0377 13.9794 13.005 13.9645C12.9774 13.9518 12.9334 13.9316 12.8885 13.9136L12.61 14.61ZM12.79 14.69L12.5267 15.3922C12.7163 15.4633 12.8919 15.48 13.04 15.48V14.73V13.98C13.0224 13.98 13.0188 13.979 13.0236 13.9797C13.0262 13.9801 13.0305 13.9809 13.036 13.9823C13.0416 13.9837 13.0475 13.9856 13.0533 13.9878L12.79 14.69ZM13.04 14.73V15.48C13.4196 15.48 13.7374 15.3333 13.9803 15.0903L13.45 14.56L12.9197 14.0297C12.9221 14.0272 12.9402 14.0105 12.9736 13.9962C13.0077 13.9817 13.0339 13.98 13.04 13.98V14.73ZM13.45 14.56L13.9768 15.0938L14.7368 14.3438L14.21 13.81L13.6832 13.2762L12.9232 14.0262L13.45 14.56ZM14.21 13.81L14.7403 14.3403C14.96 14.1207 15.1389 13.987 15.2769 13.9149L14.93 13.25L14.5831 12.5851C14.2611 12.753 13.96 12.9993 13.6797 13.2797L14.21 13.81ZM14.93 13.25L15.32 13.8906C15.4472 13.8132 15.5438 13.79 15.64 13.79V13.04V12.29C15.2362 12.29 14.8728 12.4068 14.54 12.6094L14.93 13.25ZM15.64 13.04V13.79C15.7201 13.79 15.8238 13.806 15.966 13.8642L16.25 13.17L16.534 12.4758C16.2362 12.354 15.9399 12.29 15.64 12.29V13.04ZM16.25 13.17L15.966 13.8642C16.1231 13.9284 16.3061 14.0291 16.5283 14.1802L16.95 13.56L17.3717 12.9398C17.0939 12.7509 16.8169 12.5916 16.534 12.4758L16.25 13.17ZM16.95 13.56L16.5158 14.1715L19.8258 16.5215L20.26 15.91L20.6942 15.2985L17.3842 12.9485L16.95 13.56ZM20.26 15.91L19.8331 16.5266C19.9966 16.6398 20.0773 16.747 20.1235 16.8521L20.81 16.55L21.4965 16.2479C21.3227 15.853 21.0434 15.5402 20.6869 15.2934L20.26 15.91ZM20.81 16.55L20.1136 16.8285C20.1862 17.01 20.22 17.1649 20.22 17.33H20.97H21.72C21.72 16.9351 21.6338 16.59 21.5064 16.2715L20.81 16.55ZM17.5 8H18.25C18.25 7.53018 18.075 7.02657 17.8445 6.57833C17.6063 6.11492 17.2729 5.64111 16.8783 5.21826L16.33 5.73L15.7817 6.24174C16.087 6.56889 16.3387 6.93008 16.5105 7.26417C16.69 7.61343 16.75 7.86982 16.75 8H17.5ZM16.33 5.73L16.8799 5.21997C16.1773 4.46247 15.1421 3.75 14 3.75V4.5V5.25C14.5379 5.25 15.2027 5.61753 15.7801 6.24003L16.33 5.73ZM21 8H21.75C21.75 3.71579 18.2842 0.25 14 0.25V1V1.75C17.4558 1.75 20.25 4.54421 20.25 8H21Z" fill="white"/>
</svg>
