<svg width="14" height="14" viewBox="0 0 14 14" fill="none" xmlns="http://www.w3.org/2000/svg">
<path d="M5.42197 9.52C5.42197 8.96772 4.97425 8.52 4.42197 8.52H1C0.447715 8.52 0 8.07229 0 7.52V6.4C0 5.84771 0.447715 5.4 1 5.4H4.42197C4.97425 5.4 5.42197 4.95228 5.42197 4.4V1C5.42197 0.447716 5.86968 0 6.42197 0H7.57803C8.13032 0 8.57803 0.447715 8.57803 1V4.4C8.57803 4.95228 9.02575 5.4 9.57803 5.4H13C13.5523 5.4 14 5.84772 14 6.4V7.52C14 8.07229 13.5523 8.52 13 8.52H9.57803C9.02575 8.52 8.57803 8.96772 8.57803 9.52V13C8.57803 13.5523 8.13032 14 7.57803 14H6.42197C5.86968 14 5.42197 13.5523 5.42197 13V9.52Z" fill="#24204C"/>
</svg>
